<?xml version="1.0" encoding="utf-8"?>
<!-- Generator: Adobe Illustrator 24.1.2, SVG Export Plug-In . SVG Version: 6.00 Build 0)  -->
<svg version="1.1" id="Layer_1" xmlns="http://www.w3.org/2000/svg" xmlns:xlink="http://www.w3.org/1999/xlink" x="0px" y="0px"
	 viewBox="0 0 300 300" style="enable-background:new 0 0 300 300;" xml:space="preserve">
<style type="text/css">
	.st0{fill:#FFFFFF;}
</style>
<g>
	<path class="st0" d="M132.2,127.8v-18.3h7.8c2,0,3.4,0.2,4.3,0.5c0.9,0.3,1.6,0.9,2.1,1.8c0.5,0.8,0.8,1.8,0.8,2.9
		c0,1.4-0.4,2.5-1.2,3.4c-0.8,0.9-2,1.5-3.6,1.7c0.8,0.5,1.5,1,2,1.5c0.5,0.6,1.2,1.5,2.1,3l2.2,3.6h-4.4l-2.7-4
		c-0.9-1.4-1.6-2.3-1.9-2.7c-0.3-0.4-0.7-0.6-1.1-0.8c-0.4-0.1-1-0.2-1.9-0.2h-0.7v7.6H132.2z M135.9,117.2h2.7
		c1.8,0,2.9-0.1,3.3-0.2c0.4-0.1,0.8-0.4,1-0.8c0.2-0.4,0.4-0.8,0.4-1.4c0-0.6-0.2-1.1-0.5-1.5c-0.3-0.4-0.8-0.6-1.4-0.7
		c-0.3,0-1.2-0.1-2.7-0.1h-2.9V117.2z"/>
	<path class="st0" d="M158.3,123.6l3.5,0.6c-0.4,1.3-1.2,2.3-2.1,2.9c-1,0.7-2.2,1-3.6,1c-2.3,0-4-0.8-5.1-2.3
		c-0.9-1.2-1.3-2.7-1.3-4.6c0-2.2,0.6-3.9,1.7-5.2c1.1-1.2,2.6-1.9,4.4-1.9c2,0,3.5,0.7,4.7,2c1.1,1.3,1.7,3.3,1.6,6h-8.8
		c0,1,0.3,1.8,0.8,2.4c0.5,0.6,1.2,0.9,2,0.9c0.5,0,1-0.1,1.4-0.4C157.8,124.7,158.1,124.2,158.3,123.6z M158.5,120
		c0-1-0.3-1.8-0.8-2.3c-0.5-0.5-1.1-0.8-1.8-0.8c-0.8,0-1.4,0.3-1.9,0.8c-0.5,0.6-0.7,1.3-0.7,2.3H158.5z"/>
	<path class="st0" d="M164.7,114.5h3.3v1.9c0.4-0.7,1-1.2,1.7-1.6c0.7-0.4,1.5-0.6,2.4-0.6c1.5,0,2.8,0.6,3.9,1.8
		c1.1,1.2,1.6,2.9,1.6,5c0,2.2-0.5,3.9-1.6,5.2c-1.1,1.2-2.4,1.8-3.9,1.8c-0.7,0-1.4-0.1-2-0.4c-0.6-0.3-1.2-0.8-1.9-1.5v6.7h-3.5
		V114.5z M168.2,120.9c0,1.5,0.3,2.6,0.9,3.3c0.6,0.7,1.3,1.1,2.2,1.1c0.8,0,1.5-0.3,2-1c0.5-0.7,0.8-1.7,0.8-3.2
		c0-1.4-0.3-2.4-0.8-3.1c-0.6-0.7-1.2-1-2.1-1c-0.9,0-1.6,0.3-2.1,1C168.5,118.7,168.2,119.6,168.2,120.9z"/>
	<path class="st0" d="M179.6,121c0-1.2,0.3-2.3,0.9-3.4c0.6-1.1,1.4-1.9,2.4-2.5c1.1-0.6,2.2-0.9,3.5-0.9c2,0,3.6,0.7,4.9,2
		c1.3,1.3,1.9,2.9,1.9,4.9c0,2-0.6,3.7-1.9,5c-1.3,1.3-2.9,2-4.9,2c-1.2,0-2.4-0.3-3.5-0.8c-1.1-0.5-1.9-1.4-2.5-2.4
		C179.9,123.8,179.6,122.5,179.6,121z M183.2,121.2c0,1.3,0.3,2.3,0.9,3c0.6,0.7,1.4,1,2.3,1s1.7-0.3,2.3-1c0.6-0.7,0.9-1.7,0.9-3
		c0-1.3-0.3-2.3-0.9-3c-0.6-0.7-1.4-1-2.3-1s-1.7,0.3-2.3,1C183.5,118.8,183.2,119.8,183.2,121.2z"/>
	<path class="st0" d="M199.4,127.8h-3.5v-13.3h3.3v1.9c0.6-0.9,1.1-1.5,1.5-1.8c0.4-0.3,1-0.4,1.5-0.4c0.8,0,1.6,0.2,2.3,0.7
		l-1.1,3.1c-0.6-0.4-1.1-0.6-1.6-0.6c-0.5,0-0.9,0.1-1.2,0.4c-0.3,0.3-0.6,0.8-0.8,1.5c-0.2,0.7-0.3,2.2-0.3,4.4V127.8z"/>
	<path class="st0" d="M212.1,114.5v2.8h-2.4v5.3c0,1.1,0,1.7,0.1,1.9c0,0.2,0.1,0.3,0.3,0.4c0.2,0.1,0.4,0.2,0.6,0.2
		c0.3,0,0.8-0.1,1.4-0.3l0.3,2.7c-0.8,0.3-1.7,0.5-2.8,0.5c-0.6,0-1.2-0.1-1.7-0.3c-0.5-0.2-0.9-0.5-1.1-0.8
		c-0.2-0.3-0.4-0.8-0.5-1.4c-0.1-0.4-0.1-1.2-0.1-2.5v-5.8h-1.6v-2.8h1.6v-2.6l3.5-2v4.7H212.1z"/>
	<path class="st0" d="M132.1,158.5v-18.3h5.5l3.3,12.5l3.3-12.5h5.5v18.3h-3.4v-14.4l-3.6,14.4h-3.6l-3.6-14.4v14.4H132.1z"/>
	<path class="st0" d="M156.1,149.2l-3.2-0.6c0.4-1.3,1-2.2,1.8-2.8c0.9-0.6,2.2-0.9,3.9-0.9c1.6,0,2.7,0.2,3.5,0.6
		c0.8,0.4,1.3,0.8,1.6,1.4c0.3,0.6,0.5,1.6,0.5,3.1l0,4.1c0,1.2,0.1,2,0.2,2.6c0.1,0.6,0.3,1.1,0.6,1.8h-3.5c-0.1-0.2-0.2-0.6-0.3-1
		c-0.1-0.2-0.1-0.3-0.1-0.4c-0.6,0.6-1.2,1-1.9,1.3c-0.7,0.3-1.4,0.4-2.2,0.4c-1.4,0-2.4-0.4-3.2-1.1c-0.8-0.7-1.2-1.7-1.2-2.8
		c0-0.7,0.2-1.4,0.5-2c0.4-0.6,0.9-1,1.5-1.3c0.6-0.3,1.6-0.6,2.8-0.8c1.6-0.3,2.8-0.6,3.4-0.9v-0.3c0-0.7-0.2-1.2-0.5-1.4
		c-0.3-0.3-1-0.4-1.9-0.4c-0.6,0-1.1,0.1-1.5,0.4C156.6,148.2,156.3,148.6,156.1,149.2z M160.8,152.1c-0.4,0.1-1.2,0.3-2.1,0.5
		c-1,0.2-1.6,0.4-1.9,0.6c-0.5,0.3-0.7,0.7-0.7,1.2c0,0.5,0.2,0.9,0.5,1.3c0.4,0.4,0.8,0.5,1.4,0.5c0.6,0,1.2-0.2,1.8-0.6
		c0.4-0.3,0.7-0.7,0.8-1.2c0.1-0.3,0.1-0.9,0.1-1.7V152.1z"/>
	<path class="st0" d="M179.7,158.5h-3.5v-6.8c0-1.4-0.1-2.4-0.2-2.8c-0.1-0.4-0.4-0.7-0.7-1c-0.3-0.2-0.7-0.3-1.2-0.3
		c-0.6,0-1.2,0.2-1.6,0.5c-0.5,0.3-0.8,0.8-1,1.3c-0.2,0.5-0.3,1.6-0.3,3v6h-3.5v-13.3h3.3v1.9c1.2-1.5,2.6-2.2,4.4-2.2
		c0.8,0,1.5,0.1,2.1,0.4c0.6,0.3,1.1,0.6,1.5,1.1c0.3,0.4,0.6,0.9,0.7,1.5c0.1,0.5,0.2,1.3,0.2,2.4V158.5z"/>
	<path class="st0" d="M185.9,149.2l-3.2-0.6c0.4-1.3,1-2.2,1.8-2.8c0.9-0.6,2.2-0.9,3.9-0.9c1.6,0,2.7,0.2,3.5,0.6
		c0.8,0.4,1.3,0.8,1.6,1.4c0.3,0.6,0.5,1.6,0.5,3.1l0,4.1c0,1.2,0.1,2,0.2,2.6c0.1,0.6,0.3,1.1,0.6,1.8h-3.5c-0.1-0.2-0.2-0.6-0.3-1
		c-0.1-0.2-0.1-0.3-0.1-0.4c-0.6,0.6-1.2,1-1.9,1.3c-0.7,0.3-1.4,0.4-2.2,0.4c-1.4,0-2.4-0.4-3.2-1.1c-0.8-0.7-1.2-1.7-1.2-2.8
		c0-0.7,0.2-1.4,0.5-2c0.4-0.6,0.9-1,1.5-1.3c0.6-0.3,1.6-0.6,2.8-0.8c1.6-0.3,2.8-0.6,3.4-0.9v-0.3c0-0.7-0.2-1.2-0.5-1.4
		c-0.3-0.3-1-0.4-1.9-0.4c-0.6,0-1.1,0.1-1.5,0.4C186.4,148.2,186.1,148.6,185.9,149.2z M190.6,152.1c-0.4,0.1-1.2,0.3-2.1,0.5
		c-1,0.2-1.6,0.4-1.9,0.6c-0.5,0.3-0.7,0.7-0.7,1.2c0,0.5,0.2,0.9,0.5,1.3c0.4,0.4,0.8,0.5,1.4,0.5c0.6,0,1.2-0.2,1.8-0.6
		c0.4-0.3,0.7-0.7,0.8-1.2c0.1-0.3,0.1-0.9,0.1-1.7V152.1z"/>
	<path class="st0" d="M197.2,159.3l4,0.5c0.1,0.5,0.2,0.8,0.5,1c0.3,0.2,0.9,0.4,1.6,0.4c0.9,0,1.6-0.1,2.1-0.4
		c0.3-0.2,0.5-0.5,0.7-0.9c0.1-0.3,0.2-0.8,0.2-1.6v-1.9c-1,1.4-2.4,2.1-4,2.1c-1.8,0-3.2-0.8-4.2-2.3c-0.8-1.2-1.2-2.7-1.2-4.4
		c0-2.2,0.5-3.9,1.6-5.1c1.1-1.2,2.4-1.8,4-1.8c1.6,0,3,0.7,4.1,2.2v-1.9h3.3v11.9c0,1.6-0.1,2.7-0.4,3.5c-0.3,0.8-0.6,1.4-1.1,1.8
		c-0.5,0.4-1.1,0.8-1.9,1c-0.8,0.2-1.8,0.4-3,0.4c-2.2,0-3.8-0.4-4.8-1.2c-0.9-0.8-1.4-1.7-1.4-2.9
		C197.1,159.6,197.1,159.5,197.2,159.3z M200.3,151.6c0,1.4,0.3,2.4,0.8,3.1c0.5,0.7,1.2,1,2,1c0.9,0,1.6-0.3,2.2-1
		c0.6-0.7,0.9-1.7,0.9-3c0-1.4-0.3-2.4-0.8-3.1c-0.6-0.7-1.3-1-2.1-1c-0.8,0-1.5,0.3-2.1,1C200.6,149.2,200.3,150.2,200.3,151.6z"/>
	<path class="st0" d="M220.8,154.2l3.5,0.6c-0.4,1.3-1.2,2.3-2.1,2.9c-1,0.7-2.2,1-3.6,1c-2.3,0-4-0.8-5.1-2.3
		c-0.9-1.2-1.3-2.7-1.3-4.6c0-2.2,0.6-3.9,1.7-5.2c1.1-1.2,2.6-1.9,4.4-1.9c2,0,3.5,0.7,4.7,2c1.1,1.3,1.7,3.3,1.6,6h-8.8
		c0,1,0.3,1.8,0.8,2.4c0.5,0.6,1.2,0.9,2,0.9c0.5,0,1-0.1,1.4-0.4C220.3,155.4,220.6,154.9,220.8,154.2z M221,150.7
		c0-1-0.3-1.8-0.8-2.3c-0.5-0.5-1.1-0.8-1.8-0.8c-0.8,0-1.4,0.3-1.9,0.8c-0.5,0.6-0.7,1.3-0.7,2.3H221z"/>
	<path class="st0" d="M227,145.2h3.2v1.8c1.2-1.4,2.5-2.1,4.1-2.1c0.8,0,1.6,0.2,2.2,0.5c0.6,0.3,1.1,0.9,1.5,1.6
		c0.6-0.7,1.2-1.2,1.9-1.6c0.7-0.3,1.4-0.5,2.2-0.5c1,0,1.8,0.2,2.5,0.6c0.7,0.4,1.2,1,1.5,1.7c0.2,0.6,0.4,1.5,0.4,2.7v8.5H243
		v-7.6c0-1.3-0.1-2.2-0.4-2.5c-0.3-0.5-0.8-0.7-1.5-0.7c-0.5,0-1,0.1-1.4,0.4c-0.4,0.3-0.7,0.7-0.9,1.3c-0.2,0.6-0.3,1.5-0.3,2.7
		v6.4h-3.5v-7.3c0-1.3-0.1-2.1-0.2-2.5c-0.1-0.4-0.3-0.7-0.6-0.8c-0.3-0.2-0.6-0.3-1.1-0.3c-0.5,0-1,0.1-1.5,0.4
		c-0.4,0.3-0.7,0.7-0.9,1.3c-0.2,0.5-0.3,1.5-0.3,2.7v6.4H227V145.2z"/>
	<path class="st0" d="M257.7,154.2l3.5,0.6c-0.4,1.3-1.2,2.3-2.1,2.9c-1,0.7-2.2,1-3.6,1c-2.3,0-4-0.8-5.1-2.3
		c-0.9-1.2-1.3-2.7-1.3-4.6c0-2.2,0.6-3.9,1.7-5.2c1.1-1.2,2.6-1.9,4.4-1.9c2,0,3.5,0.7,4.7,2c1.1,1.3,1.7,3.3,1.6,6h-8.8
		c0,1,0.3,1.8,0.8,2.4c0.5,0.6,1.2,0.9,2,0.9c0.5,0,1-0.1,1.4-0.4S257.5,154.9,257.7,154.2z M257.9,150.7c0-1-0.3-1.8-0.8-2.3
		c-0.5-0.5-1.1-0.8-1.8-0.8c-0.8,0-1.4,0.3-1.9,0.8c-0.5,0.6-0.7,1.3-0.7,2.3H257.9z"/>
	<path class="st0" d="M276.3,158.5h-3.5v-6.8c0-1.4-0.1-2.4-0.2-2.8c-0.1-0.4-0.4-0.7-0.7-1c-0.3-0.2-0.7-0.3-1.2-0.3
		c-0.6,0-1.2,0.2-1.6,0.5c-0.5,0.3-0.8,0.8-1,1.3c-0.2,0.5-0.3,1.6-0.3,3v6h-3.5v-13.3h3.3v1.9c1.2-1.5,2.6-2.2,4.4-2.2
		c0.8,0,1.5,0.1,2.1,0.4c0.6,0.3,1.1,0.6,1.5,1.1c0.3,0.4,0.6,0.9,0.7,1.5c0.1,0.5,0.2,1.3,0.2,2.4V158.5z"/>
	<path class="st0" d="M285.9,145.2v2.8h-2.4v5.3c0,1.1,0,1.7,0.1,1.9c0,0.2,0.1,0.3,0.3,0.4c0.2,0.1,0.4,0.2,0.6,0.2
		c0.3,0,0.8-0.1,1.4-0.3l0.3,2.7c-0.8,0.3-1.7,0.5-2.8,0.5c-0.6,0-1.2-0.1-1.7-0.3c-0.5-0.2-0.9-0.5-1.1-0.8
		c-0.2-0.3-0.4-0.8-0.5-1.4c-0.1-0.4-0.1-1.2-0.1-2.5V148h-1.6v-2.8h1.6v-2.6l3.5-2v4.7H285.9z"/>
	<path class="st0" d="M131.2,183.2l3.6-0.3c0.2,1.2,0.7,2.1,1.3,2.7c0.7,0.6,1.6,0.8,2.7,0.8c1.2,0,2.1-0.3,2.7-0.8
		c0.6-0.5,0.9-1.1,0.9-1.8c0-0.4-0.1-0.8-0.4-1.1c-0.3-0.3-0.7-0.6-1.3-0.8c-0.4-0.1-1.4-0.4-3-0.8c-2-0.5-3.4-1.1-4.2-1.8
		c-1.1-1-1.7-2.2-1.7-3.7c0-0.9,0.3-1.8,0.8-2.6c0.5-0.8,1.3-1.4,2.3-1.9c1-0.4,2.2-0.6,3.6-0.6c2.3,0,4,0.5,5.2,1.5
		c1.2,1,1.8,2.4,1.8,4l-3.7,0.2c-0.2-0.9-0.5-1.6-1-2c-0.5-0.4-1.3-0.6-2.3-0.6c-1.1,0-1.9,0.2-2.5,0.7c-0.4,0.3-0.6,0.7-0.6,1.1
		c0,0.4,0.2,0.8,0.5,1.1c0.5,0.4,1.6,0.8,3.4,1.2c1.8,0.4,3.1,0.9,4,1.3c0.9,0.5,1.5,1.1,2,1.9c0.5,0.8,0.7,1.8,0.7,2.9
		c0,1-0.3,2-0.9,2.9c-0.6,0.9-1.4,1.6-2.5,2c-1.1,0.4-2.4,0.7-4,0.7c-2.3,0-4.1-0.5-5.3-1.6C132.2,186.8,131.5,185.2,131.2,183.2z"
		/>
	<path class="st0" d="M147.5,175.9h3.7l3.2,9.4l3.1-9.4h3.6l-4.7,12.8l-0.8,2.3c-0.3,0.8-0.6,1.4-0.9,1.8c-0.3,0.4-0.6,0.7-1,1
		c-0.4,0.3-0.8,0.5-1.3,0.6c-0.5,0.1-1.1,0.2-1.8,0.2c-0.7,0-1.3-0.1-2-0.2l-0.3-2.7c0.5,0.1,1,0.2,1.5,0.2c0.8,0,1.4-0.2,1.8-0.7
		c0.4-0.5,0.7-1.1,0.9-1.8L147.5,175.9z"/>
	<path class="st0" d="M162.2,185.3l3.5-0.5c0.1,0.7,0.5,1.2,0.9,1.6c0.5,0.4,1.1,0.5,1.9,0.5c0.9,0,1.6-0.2,2-0.5
		c0.3-0.2,0.5-0.5,0.5-0.9c0-0.3-0.1-0.5-0.2-0.7c-0.2-0.2-0.6-0.3-1.2-0.5c-2.8-0.6-4.6-1.2-5.4-1.7c-1-0.7-1.6-1.7-1.6-3
		c0-1.1,0.5-2.1,1.4-2.9c0.9-0.8,2.3-1.2,4.2-1.2c1.8,0,3.2,0.3,4,0.9c0.9,0.6,1.5,1.5,1.8,2.6l-3.3,0.6c-0.1-0.5-0.4-0.9-0.8-1.2
		c-0.4-0.3-1-0.4-1.7-0.4c-0.9,0-1.6,0.1-2,0.4c-0.3,0.2-0.4,0.4-0.4,0.7c0,0.2,0.1,0.5,0.3,0.6c0.3,0.2,1.4,0.6,3.3,1
		c1.9,0.4,3.2,0.9,3.9,1.6c0.7,0.6,1.1,1.5,1.1,2.6c0,1.2-0.5,2.3-1.5,3.1c-1,0.9-2.5,1.3-4.5,1.3c-1.8,0-3.2-0.4-4.3-1.1
		C163.2,187.6,162.5,186.6,162.2,185.3z"/>
	<path class="st0" d="M183.7,175.9v2.8h-2.4v5.3c0,1.1,0,1.7,0.1,1.9c0,0.2,0.1,0.3,0.3,0.4c0.2,0.1,0.4,0.2,0.6,0.2
		c0.3,0,0.8-0.1,1.4-0.3l0.3,2.7c-0.8,0.3-1.7,0.5-2.8,0.5c-0.6,0-1.2-0.1-1.7-0.3c-0.5-0.2-0.9-0.5-1.1-0.8
		c-0.2-0.3-0.4-0.8-0.5-1.4c-0.1-0.4-0.1-1.2-0.1-2.5v-5.8h-1.6v-2.8h1.6v-2.6l3.5-2v4.7H183.7z"/>
	<path class="st0" d="M193.8,184.9l3.5,0.6c-0.4,1.3-1.2,2.3-2.1,2.9c-1,0.7-2.2,1-3.6,1c-2.3,0-4-0.8-5.1-2.3
		c-0.9-1.2-1.3-2.7-1.3-4.6c0-2.2,0.6-3.9,1.7-5.2c1.1-1.2,2.6-1.9,4.4-1.9c2,0,3.5,0.7,4.7,2c1.1,1.3,1.7,3.3,1.6,6h-8.8
		c0,1,0.3,1.8,0.8,2.4c0.5,0.6,1.2,0.9,2,0.9c0.5,0,1-0.1,1.4-0.4S193.6,185.6,193.8,184.9z M194,181.4c0-1-0.3-1.8-0.8-2.3
		c-0.5-0.5-1.1-0.8-1.8-0.8c-0.8,0-1.4,0.3-1.9,0.8c-0.5,0.6-0.7,1.3-0.7,2.3H194z"/>
	<path class="st0" d="M200.1,175.9h3.2v1.8c1.2-1.4,2.5-2.1,4.1-2.1c0.8,0,1.6,0.2,2.2,0.5c0.6,0.3,1.1,0.9,1.5,1.6
		c0.6-0.7,1.2-1.2,1.9-1.6c0.7-0.3,1.4-0.5,2.2-0.5c1,0,1.8,0.2,2.5,0.6c0.7,0.4,1.2,1,1.5,1.7c0.2,0.6,0.4,1.5,0.4,2.7v8.5h-3.5
		v-7.6c0-1.3-0.1-2.2-0.4-2.5c-0.3-0.5-0.8-0.7-1.5-0.7c-0.5,0-1,0.1-1.4,0.4c-0.4,0.3-0.7,0.7-0.9,1.3c-0.2,0.6-0.3,1.5-0.3,2.7
		v6.4h-3.5v-7.3c0-1.3-0.1-2.1-0.2-2.5c-0.1-0.4-0.3-0.7-0.6-0.8c-0.3-0.2-0.6-0.3-1.1-0.3c-0.5,0-1,0.1-1.5,0.4
		c-0.4,0.3-0.7,0.7-0.9,1.3c-0.2,0.5-0.3,1.5-0.3,2.7v6.4h-3.5V175.9z"/>
</g>
<g>
	<g>
		<path class="st0" d="M53.4,155.6c0,4.4,0,8.5,0,12.7c0,2.1-0.1,4.3,0,6.4c0,1.1-0.4,1.3-1.4,1.3c-3.5,0-7.1,0-10.6,0
			c-1,0-1.4-0.3-1.4-1.4c0.1-5.5,0-11,0-16.4c0-10.8,0-21.6,0-32.3c0-1.2,0.3-1.6,1.6-1.6c9.7,0.1,19.3,0,29,0
			c10,0.1,19.1,7.9,20.4,17.6c1.1,9-2.5,15.9-10.2,20.8c-0.1,0.1-0.3,0.2-0.4,0.3c0,0,0,0.1-0.2,0.4c4.2,4,8.5,8.2,13,12.5
			c-0.7,0-1.2,0.1-1.7,0.1c-5.3,0-10.6,0-16,0c-0.7,0-1.5-0.4-2-0.9c-6.4-6.2-12.8-12.4-19.2-18.6C54.2,156.2,53.9,156,53.4,155.6z
			 M53.8,137.4c4.9,4.8,9.9,9.6,14.8,14.4c0.2,0.2,0.8,0.3,1.2,0.2c2-0.6,3.5-1.9,4.5-3.6c2.5-4.3-0.5-10.5-5.5-10.9
			C63.9,137.2,58.9,137.4,53.8,137.4z"/>
	</g>
	<path class="st0" d="M80.2,163.1l-10.9-11v0c-0.3,0-0.6-0.1-0.7-0.2c-5-4.8-9.9-9.6-14.8-14.4c5,0,10-0.2,15,0.1
		c0.2,0,0.4,0,0.6,0.1v-13.3c-9.2,0-18.5,0-27.7,0c-1.3,0-1.6,0.4-1.6,1.6c0,10.8,0,21.6,0,32.3c0,5.5,0,11,0,16.4
		c0,1.1,0.4,1.4,1.4,1.4c3.5,0,7.1,0,10.6,0c1,0,1.4-0.3,1.4-1.3c-0.1-2.1,0-4.3,0-6.4c0-4.2,0-8.3,0-12.7c0.4,0.4,0.7,0.6,1,0.9
		c6.4,6.2,12.8,12.4,19.2,18.6c0.5,0.5,1.3,0.8,2,0.9c5.3,0.1,10.6,0,16,0c0.5,0,0.9-0.1,1.7-0.1c-4.5-4.3-8.8-8.5-13-12.5
		C80.2,163.2,80.2,163.1,80.2,163.1z"/>
	<path class="st0" d="M64.6,203.5c-7,0-13.8-1.4-20.3-4.1c-6.2-2.6-11.8-6.4-16.5-11.2c-4.8-4.8-8.5-10.3-11.2-16.5
		c-2.7-6.4-4.1-13.2-4.1-20.3s1.4-13.8,4.1-20.3c2.6-6.2,6.4-11.8,11.2-16.5c4.8-4.8,10.3-8.5,16.5-11.2c6.4-2.7,13.2-4.1,20.3-4.1
		s13.8,1.4,20.3,4.1c6.2,2.6,11.8,6.4,16.5,11.2c4.8,4.8,8.5,10.3,11.2,16.5c2.7,6.4,4.1,13.2,4.1,20.3s-1.4,13.8-4.1,20.3
		c-2.6,6.2-6.4,11.8-11.2,16.5c-4.8,4.8-10.3,8.5-16.5,11.2C78.4,202.2,71.6,203.5,64.6,203.5z M64.6,104
		c-26.2,0-47.5,21.3-47.5,47.5S38.4,199,64.6,199s47.5-21.3,47.5-47.5S90.8,104,64.6,104z"/>
</g>
</svg>
